<svg width="32" height="32" xmlns="http://www.w3.org/2000/svg">
 <g id="Layer_1">
  <title>Layer 1</title>
  <path fill="#00eaea" stroke="#000" stroke-width="0" d="m8.94394,45.70909l0,0c0,-0.09655 0.07644,-0.17483 0.17073,-0.17483l0.0776,0l0,0l0.3725,0l0.69844,0c0.04528,0 0.08871,0.01842 0.12072,0.05121c0.03202,0.03279 0.05001,0.07725 0.05001,0.12362l0,0.43707l0,0l0,0.26224l0,0c0,0.09655 -0.07644,0.17483 -0.17073,0.17483l-0.69844,0l-0.48663,0.44454l0.11413,-0.44454l-0.0776,0c-0.09429,0 -0.17073,-0.07827 -0.17073,-0.17483l0,0l0,-0.26224l0,0l0,-0.43707z" id="svg_7"/>
  <text transform="rotate(-0.437129 15.817 16.0918) matrix(2.01485 0 0 1.55378 -16.0528 -6.96664)" stroke="#000" font-weight="bold" xml:space="preserve" text-anchor="start" font-family="'Space Grotesk'" font-size="24" id="svg_1" y="23.12953" x="7.89718" stroke-width="0" fill="#0cb2ff">G</text>
 </g>

</svg>